<?xml version="1.0" encoding="utf-8"?>
<!-- Generator: Adobe Illustrator 21.0.0, SVG Export Plug-In . SVG Version: 6.00 Build 0)  -->
<svg version="1.2" baseProfile="tiny" id="Layer_1" xmlns="http://www.w3.org/2000/svg" xmlns:xlink="http://www.w3.org/1999/xlink"
	 x="0px" y="0px" viewBox="0 0 201.2 169.6" xml:space="preserve">
<path fill="#FFC900" d="M-41.9,58.2"/>
<g>
	<path fill="#FFC900" d="M158,41.7l-39.7-5.8L100.6,0L82.9,35.9l-39.7,5.8l28.7,28l-6.8,39.5l30.2-15.9v0.8c0.3-0.2,0.6-0.3,0.9-0.4
		c0.3-0.2,0.6-0.3,1-0.5c0.2-0.2,0.5-0.3,0.8-0.4c0.7-0.5,1.6-0.8,2.7-0.8c0.1,0,0.2,0,0.3,0c0.1,0,0.3-0.1,0.4-0.1
		c0.1,0,0.2,0,0.3,0c0.8-0.2,1.7-0.2,2.4,0c0.7,0.2,1.2,0.5,1.7,0.9c0.2,0.1,0.4,0.3,0.5,0.4l29.8,15.7l-6.8-39.5L158,41.7z"/>
	<polygon fill="#FFE15C" points="100.6,0 100.6,59.2 82.9,35.9 	"/>
	<polygon fill="#FFE15C" points="43.2,41.7 100.6,59.2 71.9,69.7 	"/>
	<path fill="#FFE15C" d="M95.8,93.9l4.7-2.4V59.2l-35.5,49.9l30-15C95.4,94.1,95.6,93.9,95.8,93.9z"/>
	<polygon fill="#FFE15C" points="100.6,59.2 158,41.7 118.3,35.9 	"/>
	<polygon fill="#FFE15C" points="129.3,69.7 136.1,109.2 100.6,59.2 	"/>
	<path fill="#569C00" d="M41.7,60.8c0,0,3.6-6.1,1-13.3c-2.6-7.2-8.3-9.2-8.3-9.2s-4,7.2-1.5,14.3C35.5,59.6,41.7,60.8,41.7,60.8z"
		/>
	<path fill="#569C00" d="M52.2,63c0,0,6.5-1.7,10-8.9c3.6-7.3,0.5-14.2,0.5-14.2s-6,2.4-9.6,9.8C49.4,57.2,52.2,63,52.2,63z"/>
	<path fill="#569C00" d="M53.6,84.8c0,0,6.3-2.6,9.1-10.2c2.7-7.6-1.1-14-1.1-14s-5.8,3.3-8.6,11.1C50.2,79.5,53.6,84.8,53.6,84.8z"
		/>
	<path fill="#569C00" d="M61.8,99.9c0,0,6.2-3.3,8.3-11.1c2.1-7.8-2.2-13.6-2.2-13.6s-5.5,3.8-7.7,11.9
		C57.9,95.1,61.8,99.9,61.8,99.9z"/>
	<path fill="#569C00" d="M73.5,114.6c0,0,5.3-5.1,5.5-13c0.2-7.9-5.6-11.9-5.6-11.9s-4.5,5.4-4.7,13.6
		C68.5,111.4,73.5,114.6,73.5,114.6z"/>
	<path fill="#569C00" d="M49.7,44.8c0,0,5.7-3.1,7.2-11.3c1.5-8.1-1.9-13.6-1.9-13.6s-6.6,3.9-8.1,11.8
		C45.4,39.6,49.7,44.8,49.7,44.8z"/>
	<path fill="#569C00" d="M42.2,77.5c0,0,2-6.8-2.4-12.6c-4.4-5.8-10.6-5.6-10.6-5.6s-2.1,8,2.2,13.7C35.6,78.6,42.2,77.5,42.2,77.5z
		"/>
	<path fill="#569C00" d="M47.3,93.9c0,0,0.7-7-4.9-11.3C36.9,78.2,30.8,80,30.8,80s-0.6,8.2,4.8,12.4C41,96.6,47.3,93.9,47.3,93.9z"
		/>
	<path fill="#569C00" d="M55,106.9c0,0-1.2-6.7-7.8-8.7c-6.6-2-12.2,1.7-12.2,1.7s1.6,7.7,8,9.7C49.4,111.6,55,106.9,55,106.9z"/>
	<path fill="#569C00" d="M58.3,112.3c-6.9-1.1-12.1,3.4-12.1,3.4s2.4,7.4,9.1,8.4c6.7,1,11.8-4.3,11.8-4.3S65.1,113.3,58.3,112.3z"
		/>
	<path fill="#FFD700" d="M50.5,49.3l-3.1-1.2c-0.2,0.4-14.8,40.9,30,76.5l2.1-3.3C36.9,87.4,49.9,50.9,50.5,49.3z"/>
	<path fill="#569C00" d="M159.2,59.5c0,0,6.2-1.7,8.1-8.9c2-7.2-2.6-14.1-2.6-14.1s-5.5,2.4-7.5,9.8
		C155.1,53.7,159.2,59.5,159.2,59.5z"/>
	<path fill="#569C00" d="M138.3,54.4c4.1,7,10.7,8.1,10.7,8.1s2.3-6.1-2-13.2c-4.2-7.1-10.4-9-10.4-9S134.1,47.4,138.3,54.4z"/>
	<path fill="#569C00" d="M139.4,74.9c3.3,7.4,9.9,9.5,9.9,9.5s3-5.6-0.5-13.1c-3.4-7.6-9.4-10.4-9.4-10.4S136,67.5,139.4,74.9z"/>
	<path fill="#569C00" d="M133.1,89.7c2.8,7.6,9.2,10.4,9.2,10.4s3.5-5.2,0.6-13c-2.8-7.8-8.7-11.2-8.7-11.2S130.4,82.1,133.1,89.7z"
		/>
	<path fill="#569C00" d="M125.3,103c0.8,7.9,6.5,12.6,6.5,12.6s4.8-3.6,4-11.7c-0.8-8.1-5.8-13.1-5.8-13.1S124.5,95.1,125.3,103z"/>
	<path fill="#569C00" d="M151.8,30.9c-2.1-7.8-9-11.1-9-11.1s-3,5.7-0.8,13.7c2.1,8,8.1,10.7,8.1,10.7S153.8,38.7,151.8,30.9z"/>
	<path fill="#569C00" d="M161.5,63.4c-3.9,6.1-1.4,12.8-1.4,12.8s6.6,0.5,10.4-5.4c3.8-5.9,1.1-13.8,1.1-13.8S165.5,57.3,161.5,63.4
		z"/>
	<path fill="#569C00" d="M160.2,81.2c-5.2,4.8-4,11.7-4,11.7s6.5,2.2,11.6-2.5c5-4.6,3.8-12.8,3.8-12.8S165.4,76.5,160.2,81.2z"/>
	<path fill="#569C00" d="M156.8,97.2c-6.4,2.5-7.1,9.3-7.1,9.3s5.9,4.2,12.2,1.7c6.3-2.5,7.2-10.3,7.2-10.3S163.2,94.6,156.8,97.2z"
		/>
	<path fill="#569C00" d="M146.8,112.1c-6.8,1.6-8.1,8.1-8.1,8.1s5.5,4.9,12.1,3.4c6.6-1.6,8.4-9.1,8.4-9.1S153.6,110.5,146.8,112.1z
		"/>
	<path fill="#FFD700" d="M152.5,47.3l-3,1.4c0.7,1.5,16.6,36.9-23.3,74.1l2.4,3.1C170.5,86.9,152.7,47.7,152.5,47.3z"/>
	<path fill="#FF3C07" d="M27.6,153.9c3.2-13.2,6.4-26.4,9.6-39.6c41.7,10.1,85.3,10.1,127,0c1.6,6.6,3.3,13.2,4.9,19.7
		c1.6,6.6,3.1,13.2,4.7,19.8C125.7,165.5,75.6,165.5,27.6,153.9z"/>
	<path fill="#FF3C07" d="M201.2,161.2c-10.2,3.3-20.5,6.1-30.9,8.4c-0.8-3.7-1.6-7.4-2.4-11.1c3.4-0.7,6.8-1.6,10.2-2.4
		c-1.6-6.6-3.3-13.2-4.9-19.7c-0.8-2.9-1.5-5.8-2.3-8.7c5.9-1.5,11.9-3.2,17.7-5.1c0.6,6.9,1,13.9,1.4,20.9
		C193.7,149.4,197.4,155.4,201.2,161.2z"/>
	<path fill="#FF3C07" d="M0,161.2c10.2,3.3,20.5,6.1,30.9,8.4c0.8-3.7,1.6-7.4,2.4-11.1c-3.4-0.7-6.8-1.6-10.2-2.4
		c1.6-6.6,3.3-13.2,4.9-19.7c0.8-2.9,1.5-5.8,2.3-8.7c-5.9-1.5-11.9-3.2-17.7-5.1c-0.6,6.9-1,13.9-1.4,20.9
		C7.6,149.4,3.8,155.4,0,161.2z"/>
	<g>
		<g>
			<path fill="#FFFFFF" d="M43.7,138.2c-1.8-3.6-2.7-5.4-4.4-9c2.4,0.6,3.5,0.9,5.9,1.4c1.8,3.7,2.7,5.5,4.7,9.2
				c-0.3,1.3-0.4,2-0.7,3.3c-2.5-0.5-3.8-0.8-6.3-1.4C43.2,140.3,43.4,139.6,43.7,138.2z M50.4,139.1c-0.9-1.7-1.4-2.6-2.2-4.3
				c1.5-1.1,2.2-1.7,3.7-2.8c2.3,0.5,3.5,0.7,5.8,1.1C54.9,135.6,53.4,136.8,50.4,139.1z"/>
			<path fill="#FFFFFF" d="M63.3,143.2c0.9,0.1,1.4,0.2,2.4,0.3c-0.1,0.9-0.2,1.4-0.3,2.3c-2-0.3-2.9-0.4-4.9-0.7
				c-1.4-1.1-2.1-1.7-3.5-2.9c0.5-2.7,0.7-4,1.2-6.7c1.6-0.6,2.5-1,4.1-1.6c1.9,0.3,2.8,0.4,4.7,0.7c-0.1,0.9-0.2,1.4-0.3,2.3
				c-0.9-0.1-1.4-0.2-2.3-0.3C63.9,139.2,63.7,140.6,63.3,143.2z M70,137.3c-0.9-0.1-1.4-0.2-2.4-0.3c0.1-0.9,0.2-1.4,0.3-2.3
				c1.9,0.3,2.8,0.4,4.7,0.6c1.4,1.1,2.1,1.6,3.5,2.7c-0.3,2.7-0.4,4.1-0.7,6.8c-1.6,0.8-2.4,1.1-4.1,1.8c-2-0.2-3-0.4-5-0.6
				c0.1-0.9,0.2-1.4,0.3-2.3c1,0.1,1.5,0.2,2.4,0.3C69.5,141.3,69.6,140,70,137.3z"/>
			<path fill="#FFFFFF" d="M84.6,145.5c0.9,0.1,1.4,0.1,2.3,0.1c0,0.9-0.1,1.4-0.1,2.3c-2-0.1-3-0.2-4.9-0.3c-1.5-1-2.2-1.5-3.7-2.6
				c0.3-3.6,0.5-5.4,0.8-9.1c2.5,0.2,3.7,0.3,6.1,0.5C84.9,140.1,84.8,141.9,84.6,145.5z M96.7,146c-1.5,0.9-2.3,1.3-3.9,2.2
				c-2-0.1-3-0.1-5-0.2c0-0.9,0.1-1.4,0.1-2.3c0.9,0,1.4,0.1,2.4,0.1c0.2-3.6,0.2-5.5,0.4-9.1c2.5,0.1,3.7,0.1,6.1,0.2
				C96.8,140.6,96.7,142.4,96.7,146z"/>
			<path fill="#FFFFFF" d="M105.5,139.2c2.4,0,3.6-0.1,5.9-0.2c1,1.9,1.6,2.8,2.7,4.6c0.6-1.3,0.9-2,1.6-3.4c1,1.6,1.5,2.4,2.5,4
				c-0.6,1.4-0.9,2.1-1.6,3.6c0,0,0,0,0,0c-2.1,0.1-3.2,0.2-5.4,0.3C108.9,144.6,107.7,142.8,105.5,139.2z M115.7,138.8
				c2.3-0.1,3.5-0.2,5.8-0.4c2.2,3.5,3.4,5.2,5.7,8.6c-2.3,0.2-3.5,0.3-5.8,0.5C119,144.1,117.9,142.3,115.7,138.8z M127.8,146.4
				c-1.3-1.8-1.9-2.8-3.1-4.6c0.5-1.5,0.8-2.3,1.3-3.8c2.3-0.2,3.5-0.4,5.8-0.6C130.2,141,129.4,142.8,127.8,146.4z"/>
			<path fill="#FFFFFF" d="M133.8,143.8c0.8-0.1,1.1-0.1,1.9-0.3c-0.4-2.6-0.5-3.9-0.9-6.5c-0.7,0.1-1.1,0.1-1.9,0.2
				c-0.1-1-0.2-1.4-0.3-2.4c3.9-0.5,5.9-0.8,9.8-1.5c0.2,1,0.2,1.4,0.4,2.4c-0.7,0.1-1.1,0.2-1.8,0.3c0.4,2.6,0.6,3.9,1,6.4
				c0.8-0.1,1.1-0.2,1.9-0.3c0.2,1,0.2,1.4,0.4,2.4c-4.1,0.7-6.1,1-10.2,1.5C133.9,145.2,133.9,144.8,133.8,143.8z"/>
			<path fill="#FFFFFF" d="M165.5,140.2c-2.7,0.7-4,1-6.7,1.6c-5.6-3.4-8.3-5.2-13.5-8.8c2.6-0.5,3.8-0.7,6.4-1.2
				C157.1,135.2,159.8,136.9,165.5,140.2z M147.3,144.2c-0.7-4.1-1.1-6.1-1.8-10.1c2.5,1.7,3.8,2.6,6.4,4.3c0.4,1.9,0.6,2.9,1,4.8
				C150.7,143.5,149.6,143.7,147.3,144.2z M162.7,129.2c1,4,1.5,6,2.6,10c-2.7-1.5-4.1-2.3-6.7-4c-0.4-1.9-0.7-2.8-1.1-4.7
				C159.6,129.9,160.6,129.7,162.7,129.2z"/>
		</g>
	</g>
</g>
</svg>
